<svg xmlns="http://www.w3.org/2000/svg" viewBox="0 0 24 24"><g data-name="Layer 2"><g><g data-name="download"><rect/><rect x="4" y="18" rx="1" ry="1"/><rect x="3" y="17" rx="1" ry="1" transform="translate(-13 23) rotate(-90)"/><rect x="17" y="17" rx="1" ry="1" transform="translate(1 37) rotate(-90)"/><path d="M12,15a1,1,0,0,1-.58-.18L7.42,12a1,1,0,0,1-.24-1.39,1,1,0,0,1,1.4-.24L12,12.76,15.4,10.2a1,1,0,0,1,1.2,1.6l-4,3A1,1,0,0,1,12,15Z"/><path d="M12,13a1,1,0,0,1-1-1V4a1,1,0,0,1,2,0v8A1,1,0,0,1,12,13Z"/></g></g></g></svg>