<svg xmlns="http://www.w3.org/2000/svg" viewBox="0 0 24 24"><g data-name="Layer 2"><g><g data-name="keypad"><rect/><path d="M5,2A3,3,0,1,0,8,5,3,3,0,0,0,5,2Z"/><path d="M12,2a3,3,0,1,0,3,3A3,3,0,0,0,12,2Z"/><path d="M19,8a3,3,0,1,0-3-3A3,3,0,0,0,19,8Z"/><path d="M5,9a3,3,0,1,0,3,3A3,3,0,0,0,5,9Z"/><path d="M12,9a3,3,0,1,0,3,3A3,3,0,0,0,12,9Z"/><path d="M19,9a3,3,0,1,0,3,3A3,3,0,0,0,19,9Z"/><path d="M5,16a3,3,0,1,0,3,3A3,3,0,0,0,5,16Z"/><path d="M12,16a3,3,0,1,0,3,3A3,3,0,0,0,12,16Z"/><path d="M19,16a3,3,0,1,0,3,3A3,3,0,0,0,19,16Z"/></g></g></g></svg>