<svg xmlns="http://www.w3.org/2000/svg" viewBox="0 0 24 24"><g data-name="Layer 2"><g><g data-name="shuffle"><rect transform="translate(24 24) rotate(180)"/><path d="M18,9.31a1,1,0,0,0,1,1h0a1,1,0,0,0,1-1V5a1,1,0,0,0-1-1L14.7,4a1,1,0,0,0-1,1,1,1,0,0,0,1,1h1.89L12,10.59,6.16,4.76A1,1,0,0,0,4.75,6.17L10.58,12,4.29,18.29a1,1,0,0,0,0,1.42,1,1,0,0,0,1.42,0L18,7.42Z"/><path d="M19,13.68h0a1,1,0,0,0-1,1v1.91l-2.78-2.79a1,1,0,0,0-1.42,1.42L16.57,18H14.69a1,1,0,0,0,0,2h4.23L19,20a1,1,0,0,0,1-1.11l0-4.21A1,1,0,0,0,19,13.68Z"/></g></g></g></svg>