<svg xmlns="http://www.w3.org/2000/svg" viewBox="0 0 24 24"><g data-name="Layer 2"><g><g data-name="upload"><rect transform="translate(24 24) rotate(180)"/><rect x="4" y="4" rx="1" ry="1" transform="translate(24 10) rotate(180)"/><rect x="17" y="5" rx="1" ry="1" transform="translate(25 -13) rotate(90)"/><rect x="3" y="5" rx="1" ry="1" transform="translate(11 1) rotate(90)"/><path d="M8,14a1,1,0,0,1-.8-.4,1,1,0,0,1,.2-1.4l4-3a1,1,0,0,1,1.18,0l4,2.82a1,1,0,0,1,.24,1.39,1,1,0,0,1-1.4.24L12,11.24,8.6,13.8A1,1,0,0,1,8,14Z"/><path d="M12,21a1,1,0,0,1-1-1V12a1,1,0,0,1,2,0v8A1,1,0,0,1,12,21Z"/></g></g></g></svg>